<svg xmlns:osb="http://www.openswatchbook.org/uri/2009/osb" xmlns="http://www.w3.org/2000/svg" xmlns:xlink="http://www.w3.org/1999/xlink" width="210mm" height="297mm" viewBox="0 0 210 297"><defs><linearGradient id="a" osb:paint="solid"><stop offset="0"/></linearGradient><linearGradient xlink:href="#a" id="b" gradientUnits="userSpaceOnUse" gradientTransform="matrix(.95256 0 0 1.0498 -30.238 -9.827)" x1="47.409" y1="129.054" x2="195.839" y2="129.054"/><linearGradient xlink:href="#a" id="c" gradientUnits="userSpaceOnUse" gradientTransform="matrix(.95256 0 0 1.0498 -30.238 -9.827)" x1="47.409" y1="129.054" x2="195.839" y2="129.054"/><linearGradient xlink:href="#a" id="d" gradientUnits="userSpaceOnUse" gradientTransform="matrix(.95256 0 0 1.0498 -30.238 -9.827)" x1="47.409" y1="129.054" x2="195.839" y2="129.054"/><linearGradient xlink:href="#a" id="e" gradientUnits="userSpaceOnUse" gradientTransform="matrix(.95256 0 0 1.0498 -30.238 -9.827)" x1="47.409" y1="129.054" x2="195.839" y2="129.054"/></defs><g font-weight="400" font-size="57.968" font-family="sans-serif" letter-spacing="0" word-spacing="0" fill="none" stroke-width=".604"><path style="line-height:1.25" d="M42.72 125.669q0 8.112-3.775 12.806-3.775 4.695-10.11 4.695-6.39 0-10.165-4.695-3.748-4.695-3.748-12.806 0-8.112 3.748-12.807 3.774-4.725 10.164-4.725 6.336 0 10.111 4.725 3.775 4.695 3.775 12.807zm-5.231 0q0-6.448-2.292-9.568-2.292-3.15-6.363-3.15-4.125 0-6.417 3.15-2.265 3.12-2.265 9.568 0 6.24 2.292 9.478 2.292 3.21 6.39 3.21 4.045 0 6.336-3.18 2.319-3.21 2.319-9.508z" stroke="url(#b)"/><path style="line-height:1.25" d="M94.54 142.25h-5.068v-18.9q0-2.139-.189-4.13-.162-1.99-.728-3.179-.62-1.278-1.78-1.931-1.159-.654-3.343-.654-2.13 0-4.26 1.189-2.13 1.158-4.26 2.971.081.683.135 1.605.054.89.054 1.782v21.246h-5.069v-18.898q0-2.199-.188-4.16-.162-1.991-.728-3.18-.62-1.277-1.78-1.901-1.16-.654-3.343-.654-2.076 0-4.18 1.13-2.075 1.128-4.152 2.881v24.782h-5.068v-33.19h5.068v3.684q2.373-2.17 4.719-3.388 2.372-1.218 5.042-1.218 3.073 0 5.203 1.426 2.157 1.427 3.209 3.952 3.074-2.852 5.608-4.1 2.534-1.278 5.42-1.278 4.96 0 7.306 3.328 2.373 3.298 2.373 9.241z" stroke="url(#c)"/><path style="line-height:1.25" d="M127.704 142.25h-5.042v-3.537q-.674.505-1.833 1.426-1.133.892-2.211 1.427-1.267.683-2.912 1.129-1.645.475-3.856.475-4.07 0-6.902-2.971-2.83-2.972-2.83-7.577 0-3.774 1.455-6.092 1.483-2.347 4.206-3.684 2.75-1.337 6.606-1.813 3.855-.475 8.277-.713v-.862q0-1.901-.62-3.15-.593-1.247-1.725-1.96-1.079-.684-2.589-.922-1.51-.237-3.154-.237-1.996 0-4.45.594-2.453.564-5.068 1.664h-.27v-5.676q1.483-.445 4.287-.98 2.804-.535 5.528-.535 3.181 0 5.527.594 2.372.565 4.098 1.961 1.699 1.367 2.588 3.536.89 2.17.89 5.379zm-5.042-8.172v-9.241q-2.319.148-5.473.445-3.128.297-4.961.862-2.184.683-3.532 2.14-1.348 1.426-1.348 3.951 0 2.853 1.564 4.309 1.563 1.426 4.772 1.426 2.67 0 4.88-1.129 2.21-1.159 4.098-2.763z" stroke="url(#d)"/><path style="line-height:1.25" d="M156.31 115.15h-.269q-1.132-.297-2.21-.416-1.052-.149-2.508-.149-2.346 0-4.53 1.159-2.184 1.13-4.206 2.942v23.563h-5.069v-33.19h5.07v4.902q3.019-2.674 5.31-3.774 2.32-1.129 4.72-1.129 1.32 0 1.913.09.594.059 1.78.267z" stroke="url(#e)"/></g></svg>