<!-- Icon external -->
<svg
  
   xmlns:svg="http://www.w3.org/2000/svg"
   xmlns="http://www.w3.org/2000/svg"
   style="display:none"
   >
   <defs>
  <g id="Tobecontinued" >
    <path
       id="path819"
       d="m 15.205497,132.90879 q -0.113789,0.20682 -0.151719,0.27982 l -0.859739,1.45993 q -0.442513,0.77863 -0.821809,1.94656 l -0.02528,0.0608 -0.126433,-0.0851 -0.03793,-0.15816 q -0.366654,-1.38694 -1.049387,-1.92224 -0.670091,-0.5353 -2.060846,-0.5353 -0.5689452,0 -1.1378903,0.0486 H 8.782739 v 13.188 l 1.4919,1.32611 H 4.4966859 l 1.7700514,-1.42343 v -12.10523 l -0.8976689,-0.0122 q -1.302252,0 -1.858554,0.49881 -0.5436586,0.48664 -0.6448044,1.72758 H 2.5369862 q 0.1390755,-1.42343 0.7585934,-1.98307 0.6321613,-0.55964 2.0734888,-0.55964 l 0.7585935,0.0122 h 0.1390754 v -0.59613 q -0.6448044,-0.073 -1.2263927,-0.073 -1.6309759,0 -2.3516398,0.64481 -0.7206638,0.63263 -0.796523,2.15339 H 1.740463 q -0.5436586,-1.6911 -1.68154882,-3.77149 l -0.07585934,-0.12167 z m 0.796523,0.76646 q -0.872383,1.07062 -1.833268,3.5525 l -0.05057,0.12165 -0.278152,-0.23116 0.03793,-0.10949 q 0.935599,-2.51837 1.807981,-3.50382 l 0.06321,-0.073 z m -3.375741,1.89791 q -0.973528,-0.6083 -2.275781,-0.6083 -0.290793,0 -0.606874,0.0365 l 0.050572,12.22687 2.0102735,2.28722 H 5.343782 l -0.2907942,-0.32848 h 6.0561042 l -1.6941918,-1.86141 v -12.67702 l 0.6827338,-0.0122 q 1.226393,0 1.732122,0.19465 0.518373,0.18249 0.796523,0.74213 z" />
    <path
       id="path821"
       d="m 25.876378,135.62183 -0.214935,-0.12167 q -1.213748,-0.6448 -2.225207,-0.6448 -3.325168,0 -3.325168,6.28985 0,4.59877 2.060846,6.09519 l -0.113789,0.12167 q -1.264323,-0.8638 -1.807982,-2.26289 -0.531015,-1.41126 -0.531015,-3.80798 0,-6.75215 3.691821,-6.75215 1.681549,0 2.465429,1.08278 z m -2.705649,-2.8712 q 3.072303,0 4.90557,2.23855 1.845911,2.23857 1.845911,5.98571 0,3.54032 -1.820624,5.64504 -1.807981,2.10473 -4.867641,2.10473 -2.414856,0 -4.298697,-1.48426 -2.768866,-2.18989 -2.768866,-6.4845 0,-3.67415 1.896484,-5.83971 1.896484,-2.16556 5.107863,-2.16556 z m 0,1.04628 q -4.27341,0 -4.27341,7.22664 0,6.67916 4.210193,6.67916 1.9597,0 2.983801,-1.76408 1.024101,-1.77624 1.024101,-5.18273 0,-3.85664 -0.986171,-5.3774 -1.036745,-1.58159 -2.958514,-1.58159 z m 4.033188,-0.42581 q 1.807981,0.83946 2.857369,2.8712 1.049388,2.03172 1.049388,4.69609 0,3.91746 -2.07349,6.32635 -2.060845,2.40887 -5.423943,2.40887 -2.149348,0 -4.020545,-1.3991 v -0.0608 q 1.567759,1.10712 3.932042,1.10712 3.17345,0 5.209009,-2.29939 2.035559,-2.29938 2.035559,-5.8762 0,-2.66436 -0.935598,-4.6596 -0.922956,-1.99523 -2.629791,-2.98068 z" />
    <path
       id="path823"
       d="m 39.063261,134.56337 q 3.009087,-1.91007 6.751482,-1.91007 2.718293,0 4.437771,1.18011 1.719479,1.16795 1.719479,3.02935 0,2.48187 -2.983801,3.32134 v 0.13382 q 0.303437,0.073 0.733307,0.19466 1.403398,-0.31632 2.199921,-1.28961 0.809167,-0.97328 0.809167,-2.34804 0,-1.72759 -1.479257,-3.06585 v -0.073 l 0.139074,0.10949 q 1.656263,1.22878 1.656263,3.15102 0,2.65219 -2.857368,3.69847 1.239035,0.54748 1.92177,1.55726 0.695377,1.00979 0.695377,2.27505 0,1.81274 -1.365468,2.90769 -1.365468,1.08278 -3.641249,1.08278 h -9.052548 l 1.744764,-1.4356 v -5.2679 q -0.74595,0 -1.744764,0.146 l -0.101147,-0.35282 q 1.125247,-0.10949 1.84591,-0.10949 v -0.64481 h -0.31608 q -0.708021,0 -1.782695,0.0973 l 0.556302,-1.16794 0.202292,0.0122 q 0.493085,0.0365 0.74595,0.0365 0.379296,0 0.594231,0.0365 v -4.57443 z m 3.957329,-0.18248 v 5.48688 q 0.139076,-0.0122 0.189649,-0.0122 l 0.227577,0.0122 q 0.05057,0 0.214935,0 v -4.97591 q 1.087318,-0.48664 2.124062,-0.48664 1.188463,0 1.871198,0.41364 0.695377,0.41365 1.17582,1.41126 l -0.354011,-0.19465 q -0.948242,-1.37477 -2.705649,-1.37477 -0.986172,0 -1.770053,0.53531 v 4.67176 h 0.531016 q 2.414855,0 3.590675,-0.76645 1.188464,-0.77863 1.188464,-2.37239 0,-1.39909 -0.986172,-2.25071 -0.973528,-0.8638 -2.566574,-0.8638 -1.403398,0 -2.730937,0.76647 z m 0,6.4845 v 6.7035 h 0.632161 v -5.97353 q 0.89767,-0.0608 1.289609,-0.0608 2.098775,0 3.034375,0.37714 0.948241,0.37715 1.504543,1.43559 h -0.151719 q -0.619517,-0.83945 -1.555116,-1.15577 -0.935599,-0.32848 -2.74358,-0.32848 l -1.036745,0.0243 v 5.68155 h 0.404583 l 1.833268,-0.0608 q 3.565389,-0.24332 3.565389,-3.33351 0,-1.9344 -1.175819,-2.64002 -1.17582,-0.7178 -4.399842,-0.7178 -0.316081,0 -1.201107,0.0486 z m 9.469775,0.85162 q 1.352825,1.00978 1.352825,3.06585 0,2.06823 -1.504543,3.41866 -1.466615,1.31393 -4.31134,1.31393 h -8.597393 l -0.214934,-0.32848 h 7.977874 q 2.604504,0 3.755038,-0.51097 2.553932,-1.14361 2.553932,-3.97831 0,-1.58158 -1.163177,-2.87118 z" />
    <path
       id="path825"
       d="m 69.179423,132.90879 -0.202292,0.23116 q -1.289609,1.52075 -2.048202,3.49165 -0.126433,-0.27981 -0.189649,-0.41364 -0.695377,-1.45993 -1.4919,-1.88574 -0.796524,-0.42581 -2.857369,-0.42581 -0.948241,0 -2.275781,0.0608 v 5.59639 h 0.809167 v -4.95159 q 0.960886,-0.0851 1.833267,-0.0851 1.60569,0 2.364284,0.32848 0.758593,0.32848 1.352824,1.27743 -0.177005,-0.12165 -0.252864,-0.18248 -1.024101,-0.77863 -1.479257,-0.92463 -0.455156,-0.14599 -1.795338,-0.14599 -0.404584,0 -1.441328,0.0487 l -0.265507,0.0122 v 4.62311 h 2.326353 l 1.630976,-2.1534 v 5.24357 l -1.630976,-2.03173 H 60.11423 v 6.82515 h 0.809167 v -6.25334 h 2.74358 l 0.328724,0.31631 h -2.756223 v 5.93703 q 2.579217,0 3.666535,-0.35281 1.087317,-0.35281 1.706835,-1.38693 l 0.670091,-1.10711 q 0.03793,-0.073 0.151718,-0.26766 0.328724,1.33827 0.809167,2.14123 0.493086,0.80296 1.618332,1.87358 H 55.689102 l 1.92177,-1.41126 v -5.42607 q -1.06203,0.12166 -1.92177,0.63263 l -0.177005,-0.25548 q 0.771236,-0.53531 2.098775,-0.69346 v -0.57181 q -0.214934,-0.0243 -0.303437,-0.0243 -1.289609,0 -2.35164,0.91246 0.581588,-1.94656 2.655077,-1.94656 v -5.19492 l -1.92177,-1.45992 z m 0.606874,0.85163 -0.08851,0.10949 q -1.542474,1.99523 -2.060846,3.34566 l -0.214935,-0.25549 q 0.847096,-1.88573 2.187278,-3.45515 z m -3.717108,4.05129 v 5.37739 l -0.31608,-0.15815 v -5.37739 z m 5.234296,10.6088 -0.657448,1.09494 H 56.839635 l -0.202291,-0.32848 h 13.84433 l 0.42987,-0.76646 q -1.820624,-1.61809 -2.566574,-3.45516 l 0.404583,0.14599 q 0.695377,1.55725 2.35164,3.11451 z" />
    <path
       id="path827"
       d="m 91.317706,133.28594 -0.139076,0.23115 q -1.13789,1.91008 -1.972343,3.82015 l -0.113789,0.27981 -0.164361,-0.0851 q -0.290795,-1.84924 -1.352826,-2.93202 -1.062031,-1.08278 -2.566575,-1.08278 -1.605688,0 -2.680363,1.35044 -1.352824,1.67891 -1.352824,5.69371 0,3.45516 1.239035,5.41389 1.251679,1.95874 3.464243,1.95874 1.770052,0 2.81944,-1.13145 1.062031,-1.1436 1.264322,-3.2605 0.05057,-0.51098 0.42987,-0.51098 0.493085,0 0.493085,0.79081 0,1.1801 -0.556302,2.44537 -1.17582,2.67653 -4.854998,2.67653 -3.287238,0 -5.221651,-2.21422 -1.934414,-2.22639 -1.934414,-6.01003 0,-3.49165 2.010274,-5.85187 2.010272,-2.36021 4.994072,-2.36021 1.416042,0 3.224023,0.66913 0.948242,0.35281 1.56776,0.35281 0.670091,0 1.201106,-0.35281 z m -3.666535,2.10473 q -1.150534,-0.88812 -2.174635,-0.88812 -3.274595,0 -3.274595,6.01003 0,2.73736 0.758594,4.56227 0.758593,1.81274 2.136705,2.34804 v 0.12166 q -1.491901,-0.29198 -2.38957,-2.20205 -0.885025,-1.92224 -0.885025,-4.85426 0,-6.28985 3.590675,-6.28985 1.213749,0 2.237851,1.03412 z m 4.121691,8.35807 q -0.202291,3.01718 -1.757409,4.59878 -1.542473,1.56941 -4.323982,1.56941 -2.111419,0 -3.932043,-1.2531 v -0.0973 q 1.618333,1.02195 3.906756,1.02195 2.503359,0 4.083762,-1.54509 0.771237,-0.7543 1.13789,-1.69108 0.366654,-0.93679 0.493085,-2.48187 l 0.02529,-0.27982 z m 0.467799,-9.87883 -0.139075,0.23115 q -1.378111,2.26289 -2.199922,4.1243 l -0.341366,-0.15816 0.139075,-0.30415 q 0.632161,-1.27744 1.112604,-2.1169 l 1.011457,-1.72757 0.126433,-0.21899 z" />
    <path
       id="path829"
       d="m 102.8989,135.62183 -0.21494,-0.12167 q -1.21375,-0.6448 -2.2252,-0.6448 -3.325173,0 -3.325173,6.28985 0,4.59877 2.060846,6.09519 l -0.113789,0.12167 q -1.264322,-0.8638 -1.807981,-2.26289 -0.531015,-1.41126 -0.531015,-3.80798 0,-6.75215 3.691822,-6.75215 1.68155,0 2.46543,1.08278 z m -2.70565,-2.8712 q 3.0723,0 4.90557,2.23855 1.84591,2.23857 1.84591,5.98571 0,3.54032 -1.82063,5.64504 -1.80797,2.10473 -4.86764,2.10473 -2.414852,0 -4.298693,-1.48426 -2.768866,-2.18989 -2.768866,-6.4845 0,-3.67415 1.896484,-5.83971 1.896484,-2.16556 5.107865,-2.16556 z m 0,1.04628 q -4.273412,0 -4.273412,7.22664 0,6.67916 4.210192,6.67916 1.9597,0 2.9838,-1.76408 1.0241,-1.77624 1.0241,-5.18273 0,-3.85664 -0.98617,-5.3774 -1.03674,-1.58159 -2.95851,-1.58159 z m 4.03319,-0.42581 q 1.80798,0.83946 2.85737,2.8712 1.04938,2.03172 1.04938,4.69609 0,3.91746 -2.07348,6.32635 -2.06086,2.40887 -5.42395,2.40887 -2.149348,0 -4.020545,-1.3991 v -0.0608 q 1.56776,1.10712 3.932045,1.10712 3.17344,0 5.20901,-2.29939 2.03556,-2.29938 2.03556,-5.8762 0,-2.66436 -0.93561,-4.6596 -0.92295,-1.99523 -2.62978,-2.98068 z" />
    <path
       id="path831"
       d="m 123.70965,132.90879 q -1.44133,0.7178 -1.85856,1.31394 -0.63216,0.92461 -0.63216,2.78602 v 0.7908 10.71829 h -2.13671 l -5.9676,-11.14411 v 6.60617 l -0.0126,0.54747 0.15172,1.75192 q 0.25287,1.2166 1.15053,1.80057 l 0.10112,0.0851 q -1.74476,-0.55964 -1.74476,-3.58898 l 0.0126,-1.14361 v -6.65483 l -0.68272,-1.27744 v 7.00765 q 0,3.33349 0.45515,4.36761 0.45515,1.03411 2.13671,1.50859 l 1.09995,1.13144 h -6.85262 l -0.2023,-0.32848 h 6.33426 l -0.65745,-0.66913 h -5.89174 q 1.54247,-0.53531 2.0482,-1.4356 0.50574,-0.90028 0.50574,-3.09017 v -9.73285 l -1.68156,-1.35043 h 6.39747 l -1.79533,1.15578 6.11932,11.48475 v -1.45992 l -5.24694,-9.83018 1.77005,-1.15577 0.24022,0.23116 -1.56776,1.02194 4.80443,9.07588 v -5.68154 -0.64481 q 0,-2.1169 -0.36666,-2.82252 -0.354,-0.7178 -1.77005,-1.37477 z m 0.44251,0.90029 -0.22758,0.36499 q -0.97353,0.21898 -1.32754,0.81511 -0.34136,0.58398 -0.34136,1.98308 v 12.54319 h -2.71829 l -0.16438,-0.32848 h 2.5413 v -12.09305 q 0,-1.71542 0.45515,-2.38455 0.46781,-0.6813 1.7827,-0.90029 z" />
    <path
       id="path833"
       d="m 138.95737,132.90879 q -0.11379,0.20682 -0.15171,0.27982 l -0.85974,1.45993 q -0.44252,0.77863 -0.82182,1.94656 l -0.0253,0.0608 -0.12643,-0.0851 -0.0379,-0.15816 q -0.36666,-1.38694 -1.0494,-1.92224 -0.67008,-0.5353 -2.06084,-0.5353 -0.56894,0 -1.13789,0.0486 h -0.15172 v 13.188 l 1.49191,1.32611 h -5.77796 l 1.77006,-1.42343 v -12.10523 l -0.89768,-0.0122 q -1.30225,0 -1.85855,0.49881 -0.54365,0.48664 -0.6448,1.72758 h -0.32872 q 0.13907,-1.42343 0.75859,-1.98307 0.63215,-0.55964 2.07348,-0.55964 l 0.7586,0.0122 h 0.13908 v -0.59613 q -0.64481,-0.073 -1.2264,-0.073 -1.63097,0 -2.35164,0.64481 -0.72066,0.63263 -0.79652,2.15339 h -0.15172 q -0.54366,-1.69108 -1.68155,-3.77147 l -0.0758,-0.12167 z m 0.79652,0.76646 q -0.87238,1.07062 -1.83326,3.5525 l -0.0506,0.12165 -0.27815,-0.23116 0.0379,-0.10949 q 0.93559,-2.51837 1.80797,-3.50382 l 0.0632,-0.073 z m -3.37573,1.89791 q -0.97353,-0.6083 -2.27579,-0.6083 -0.29079,0 -0.60687,0.0365 l 0.0506,12.22687 2.01027,2.28722 h -6.46068 l -0.2908,-0.32848 h 6.0561 l -1.69418,-1.86141 v -12.67702 l 0.68273,-0.0122 q 1.22639,0 1.73212,0.19465 0.51837,0.18249 0.79653,0.74213 z" />
    <path
       id="path835"
       d="m 139.82975,132.90879 h 5.99289 l -1.69419,1.65458 v 12.66486 l 1.59304,1.28961 h -5.89174 l 1.75741,-1.3991 v -12.68919 z m 6.56184,0.69347 -1.28961,1.22877 v 12.3972 l 2.12405,2.28722 h -6.57446 l -0.31609,-0.32848 h 6.14461 l -1.73213,-1.83707 v -12.62837 l 1.42869,-1.36259 z" />
    <path
       id="path837"
       d="m 162.19563,132.90879 q -1.44133,0.7178 -1.85856,1.31394 -0.63216,0.92461 -0.63216,2.78602 v 0.7908 10.71829 h -2.1367 l -5.96761,-11.14411 v 6.60617 l -0.0126,0.54747 0.15172,1.75192 q 0.25287,1.2166 1.15053,1.80057 l 0.10113,0.0851 q -1.74477,-0.55964 -1.74477,-3.58898 l 0.0127,-1.14361 v -6.65483 l -0.68274,-1.27744 v 7.00765 q 0,3.33349 0.45516,4.36761 0.45515,1.03411 2.1367,1.50859 l 1.09997,1.13144 h -6.85263 l -0.2023,-0.32848 h 6.33425 l -0.65744,-0.66913 h -5.89174 q 1.54248,-0.53531 2.0482,-1.4356 0.50573,-0.90028 0.50573,-3.09017 v -9.73285 l -1.68155,-1.35043 h 6.39748 l -1.79534,1.15578 6.11932,11.48475 v -1.45992 l -5.24694,-9.83018 1.77005,-1.15577 0.24022,0.23116 -1.56776,1.02194 4.80443,9.07588 v -5.68154 -0.64481 q 0,-2.1169 -0.36666,-2.82252 -0.354,-0.7178 -1.77005,-1.37477 z m 0.44251,0.90029 -0.22758,0.36499 q -0.97352,0.21898 -1.32754,0.81511 -0.34136,0.58398 -0.34136,1.98308 v 12.54319 h -2.7183 l -0.16436,-0.32848 h 2.54128 v -12.09305 q 0,-1.71542 0.45516,-2.38455 0.46781,-0.6813 1.7827,-0.90029 z" />
    <path
       id="path839"
       d="m 177.86057,132.90879 -2.26314,1.73975 v 7.85927 q 0,2.16556 -0.15172,3.11451 -0.13907,0.94895 -0.56894,1.55725 -1.08731,1.55725 -4.22283,1.55725 -3.31253,0 -4.62743,-1.55725 -1.04939,-1.22876 -1.04939,-4.70826 v -8.07826 l -1.71947,-1.48426 h 5.9676 l -1.71948,1.61809 v 7.9566 l 0.0253,1.87357 q 0,1.81274 0.78387,2.57921 0.78389,0.75429 2.64244,0.75429 2.0482,0 2.81944,-1.15578 0.61952,-0.93678 0.61952,-4.01479 l 0.0506,-7.87144 -1.97235,-1.73975 z m 0.42987,0.82729 -1.71948,1.37477 v 7.55511 q 0,3.71065 -0.60687,4.8421 -1.23904,2.28722 -4.84236,2.28722 -3.11023,0 -4.67799,-1.49643 l 0.10113,0.0487 0.44251,0.24331 q 1.55512,0.87596 3.99526,0.87596 3.48952,0 4.62742,-2.11689 0.60687,-1.14361 0.60687,-4.59877 v -7.78627 l 1.88385,-1.48427 z m -8.53418,-0.17032 -1.23903,1.20444 v 9.03937 l -0.0126,0.83947 0.39193,1.54508 q 0.29079,0.46231 1.09996,1.11928 l 0.0253,0.10949 q -1.06203,-0.41364 -1.46661,-1.20443 -0.40459,-0.79079 -0.40459,-2.44538 v -9.12454 l 1.42869,-1.33827 z" />
    <path
       id="path841"
       d="m 192.77959,132.90879 -0.2023,0.23116 q -1.28961,1.52075 -2.0482,3.49165 -0.12643,-0.27981 -0.18964,-0.41364 -0.69538,-1.45993 -1.49191,-1.88574 -0.79652,-0.42581 -2.85736,-0.42581 -0.94824,0 -2.27578,0.0608 v 5.59639 h 0.80916 v -4.95159 q 0.96089,-0.0851 1.83327,-0.0851 1.60569,0 2.36429,0.32848 0.75859,0.32848 1.35282,1.27743 -0.177,-0.12165 -0.25287,-0.18248 -1.0241,-0.77863 -1.47925,-0.92463 -0.45516,-0.14599 -1.79535,-0.14599 -0.40457,0 -1.44132,0.0487 l -0.2655,0.0122 v 4.62311 h 2.32635 l 1.63097,-2.1534 v 5.24357 l -1.63097,-2.03173 h -3.4516 v 6.82515 h 0.80916 v -6.25334 h 2.74358 l 0.32873,0.31631 h -2.75622 v 5.93703 q 2.57922,0 3.66653,-0.35281 1.08732,-0.35281 1.70683,-1.38693 l 0.6701,-1.10711 q 0.0379,-0.073 0.15172,-0.26766 0.32872,1.33827 0.80916,2.14123 0.49309,0.80296 1.61834,1.87358 h -14.17306 l 1.92177,-1.41126 v -5.42607 q -1.06203,0.12166 -1.92177,0.63263 l -0.177,-0.25548 q 0.77123,-0.53531 2.09877,-0.69346 v -0.57181 q -0.21493,-0.0243 -0.30344,-0.0243 -1.28961,0 -2.35164,0.91246 0.58159,-1.94656 2.65508,-1.94656 v -5.19492 l -1.92177,-1.45992 z m 0.60687,0.85163 -0.0885,0.10949 q -1.54247,1.99523 -2.06085,3.34566 l -0.21493,-0.25549 q 0.8471,-1.88573 2.18728,-3.45515 z m -3.71711,4.05129 v 5.37739 l -0.31607,-0.15815 v -5.37739 z m 5.2343,10.6088 -0.65745,1.09494 h -13.8064 l -0.20229,-0.32848 h 13.84433 l 0.42987,-0.76646 q -1.82063,-1.61809 -2.56657,-3.45516 l 0.40458,0.14599 q 0.69538,1.55725 2.35164,3.11451 z" />
    <path
       id="path843"
       d="m 195.5358,132.90879 h 4.98144 q 3.65388,0 5.41129,1.35043 2.61715,1.99524 2.61715,6.25336 0,4.41627 -2.28842,6.38717 -1.03674,0.88813 -2.32635,1.25311 -1.27697,0.36498 -3.40103,0.36498 h -5.37338 l 1.73212,-1.27744 v -12.93251 z m 3.8309,1.02195 v 13.65031 h 0.69538 v -12.84734 q 0.65744,-0.0973 1.2011,-0.0973 1.03675,0 1.63098,0.20682 0.60688,0.19465 1.21375,0.72996 -1.34019,-0.6083 -2.87001,-0.6083 -0.32873,0 -0.85974,0.0487 v 12.56753 q 1.41604,0 2.14935,-0.21898 0.7333,-0.23117 1.39075,-0.87596 1.83327,-1.78842 1.83327,-6.01003 0,-4.12429 -1.98499,-5.63288 -1.2011,-0.91246 -3.80561,-0.91246 z m -3.42631,15.58471 -0.18965,-0.32848 h 4.62742 q 3.41367,0 5.18372,-0.91246 3.80561,-1.94656 3.80561,-7.53078 0,-3.73498 -1.70683,-5.54772 l -0.50573,-0.53531 q -0.0253,-0.0243 -0.15172,-0.17032 2.68036,1.61808 2.68036,6.19252 0,4.80559 -2.65508,7.08065 -2.03555,1.7519 -6.65033,1.7519 z" />
  </g>
     </defs>
</svg>
