
<svg
   xmlns:svg="http://www.w3.org/2000/svg"
   xmlns="http://www.w3.org/2000/svg">
    <path d="m 2354.8955,792.79268 h -286.2813 v -55.29797 h 249.6172 q 0,-37.50092 -14.063,-57.20481 -9.5427,-13.66556 -47.2113,-39.40774 l 39.1754,-51.80207 q 36.1618,28.92018 45.2023,45.12822 13.5607,24.47093 13.5607,81.0401 z m -51.2293,77.22644 -39.1753,46.08163 -81.3642,-26.69556 37.1664,-46.39945 z" />
    <path d="m 2103.2692,792.79268 h -38.6731 q -32.1439,0 -55.2473,-5.40268 -23.1034,-5.72047 -42.1888,-15.89023 -23.6057,11.75879 -41.1844,15.57244 -25.6145,5.72047 -70.3146,5.72047 h -32.6462 q -26.1168,0 -52.2338,-6.35611 -17.0763,-4.13144 -42.1887,-13.66556 -24.1079,11.44093 -44.1978,15.89019 -20.09,4.13148 -65.2923,4.13148 h -96.9338 v -55.29797 h 96.9338 q 40.6821,0 58.2608,-4.44926 29.1304,-7.30953 29.1304,-29.23801 0,-9.21634 -1.5068,-18.43264 -1.5067,-9.21634 -5.5247,-20.65727 l 20.5921,-19.06829 q 14.063,29.23801 23.1035,42.58579 16.0719,23.19973 35.1573,34.95848 23.1034,14.3012 55.2473,14.3012 h 33.6506 q 37.6686,0 55.7495,-7.30953 20.0899,-8.26288 20.0899,-26.37774 0,-9.85194 -2.009,-19.06824 -2.009,-9.21634 -5.5247,-20.02167 l 21.0944,-19.06829 10.5472,29.87362 q 13.5607,35.27629 33.1484,48.94189 17.0764,12.07654 46.2068,12.07654 13.5606,0 21.5966,-5.08486 8.5383,-5.40269 8.5383,-13.6656 0,-17.79704 -20.5922,-37.50093 -3.5158,-3.17802 -24.6102,-20.65727 l 32.6461,-34.64066 q 20.5922,19.70385 28.1259,34.00505 11.0495,21.6107 11.0495,57.5226 z" />
    <path d="m 1557.3258,792.79268 h -59.7675 q -83.3732,0 -145.6519,9.8519 -78.8529,12.3944 -78.8529,35.59412 0,20.97509 11.0495,44.81042 11.5517,23.83529 23.1034,48.30626 12.0539,24.47093 12.0539,44.81043 0,12.0765 -3.0135,21.9285 -2.5113,9.85189 -9.5427,25.74209 -13.0584,-26.37769 -25.6146,-52.75549 -24.1079,-50.21308 -35.6596,-75.95522 -18.081,-40.67898 -18.081,-48.94189 0,-40.67894 26.6192,-62.28964 27.1214,-21.92852 82.8709,-32.41603 44.1978,-8.26295 133.0956,-13.98342 -31.6415,-20.33949 -39.1753,-24.15314 -25.6146,-12.71214 -51.7315,-12.71214 -16.5742,0 -31.6416,6.35607 -12.054,5.08486 -29.1304,17.47925 l -23.1034,-9.21634 q 15.0675,-23.83532 34.1528,-38.13653 31.6417,-23.51754 74.835,-23.51754 31.1394,0 62.2787,14.61902 25.6147,12.07654 52.2338,33.68727 13.0584,10.48751 38.6731,35.59408 z" />
    <path d="m 493.06258,453.37762 -10.5472,2.54243 q -12.5562,-19.38606 -38.17083,-36.2297 -6.52923,-4.44926 -33.65061,-18.75046 4.52023,-13.34778 23.1034,-13.34778 18.58317,0 29.13037,11.44096 15.56969,18.11485 18.08093,21.9285 8.53821,13.34779 12.05394,32.41605 z m 90.40462,14.61899 q 0,22.88192 -13.5607,40.04336 -13.05844,16.84363 -33.6506,16.84363 -11.5517,0 -21.09441,-1.58903 -9.04046,-1.90682 -20.59216,-6.03828 -6.02698,9.53413 -18.58317,17.16144 -16.07193,9.85193 -32.64611,9.85193 -21.09441,0 -31.64162,-8.58071 -10.5472,-8.58072 -10.5472,-22.88192 0,-5.72048 2.00899,-12.71217 2.00899,-7.30951 3.01349,-11.12316 l 15.06743,-3.81365 q 0,15.25461 7.03147,20.97509 7.53372,5.40267 23.60565,5.40267 10.54721,0 22.09891,-13.34778 12.05394,-13.66559 15.06743,-26.37776 l 11.5517,-1.90683 q 5.52473,12.71218 8.53822,14.93681 7.03147,6.03828 26.11688,6.03828 13.56069,0 23.1034,-13.02998 6.02698,-8.58071 10.04496,-20.65728 l 12.5562,-1.90683 q 2.51124,6.35609 2.51124,12.71217 z m 145.65187,267.27347 q 0,11.75879 -2.51124,21.6107 -4.01798,15.89023 -14.06294,27.96676 l -6.52922,7.94514 q -59.76749,0 -97.93833,-11.12315 -30.63712,-8.89852 -53.74052,-27.64898 -20.08991,21.61065 -48.21579,30.82699 -24.1079,7.94514 -55.74951,7.94514 -32.64611,0 -63.78548,-12.07657 -30.63712,-12.07658 -41.68657,-31.14482 -20.0899,18.75046 -48.21579,31.14482 -28.12588,12.07657 -54.74502,12.07657 -56.25172,0 -89.40011,-5.08486 -33.14835,-5.40269 -33.14835,-13.6656 0,-26.69556 57.25622,-60.38283 57.25629,-34.00506 139.62493,-58.1582 -2.00901,-4.76708 -5.0225,-13.02996 -2.51123,-8.26292 -2.51123,-13.03 0,-10.80536 11.55171,-24.15314 9.5427,-10.80535 25.61464,-22.8819 6.52922,26.05996 13.56069,52.1199 10.5472,39.08996 21.59666,72.77719 6.02697,17.47926 22.60115,25.10657 17.07642,7.62728 45.70455,7.62728 23.1034,0 35.6596,-3.81362 13.05844,-4.13148 32.64611,-23.19973 l -29.63262,-86.7606 q -3.51574,-10.16974 -5.02248,-16.52583 -3.51573,-12.39437 -3.51573,-17.79705 0,-11.12313 11.5517,-24.47091 9.5427,-10.80536 25.61463,-22.56412 4.52023,16.20802 10.04496,35.2763 6.02697,18.75046 17.57867,54.98013 l 18.08093,54.66236 q 8.03596,23.19972 24.10789,35.2763 19.58767,14.61898 52.73603,14.61898 14.06294,0 22.60115,-6.99167 9.04046,-7.30953 11.5517,-19.70389 l -29.13038,-86.7606 q -3.51573,-13.34777 -4.52023,-16.52583 -3.51573,-13.02997 -3.51573,-17.79705 0,-10.80535 11.5517,-24.47091 10.04496,-11.75877 24.61015,-22.56412 2.00899,7.9451 17.07642,50.8487 18.08092,52.11994 26.11689,78.8155 13.56069,45.1282 13.56069,60.70061 z m -394.7668,-8.26291 -9.5427,-35.27626 q -44.19784,10.16972 -67.30122,20.02163 -26.11691,11.12319 -43.69557,28.92023 11.04945,2.86023 24.61013,4.44926 14.06294,1.58902 39.17533,1.58902 14.06298,0 29.13041,-5.08486 15.06742,-5.40268 27.62362,-14.61902 z m 546.94787,-15.25463 q 0,25.42439 -14.5652,49.25972 -7.5337,12.71217 -32.6461,40.36116 l -9.0404,-3.1781 q 1.5067,-9.2163 2.5112,-21.29287 1.5068,-12.07654 1.5068,-16.20801 0,-33.05167 -8.5383,-92.16326 -8.0359,-59.42943 -19.5876,-123.94371 -7.0315,-39.08994 -15.5697,-79.7689 10.045,-13.98339 22.6011,-30.19141 13.0585,-16.20802 24.6102,-30.50922 8.036,36.22969 20.0899,99.15496 12.5562,62.92526 19.5877,113.45617 9.0404,62.92526 9.0404,95.02347 z" />
</svg>
